<svg xmlns="http://www.w3.org/2000/svg" viewBox="235.5 118.5 131.0 182.0" fill="currentColor" role="img"><title>蒔恩美學診所 SHE AND</title><path d="M365.42 297.86 C363.24 297.34 361.91 296.51 360.49 295.37 C358.51 293.76 356.93 291.70 356.00 289.23 C355.91 288.80 355.82 288.36 355.74 287.90 C355.37 285.65 355.18 282.45 355.18 278.16 L356.74 221.31 L356.71 220.95 L356.57 220.51 L352.20 214.47 C352.19 214.46 352.19 214.45 352.19 214.44 L346.83 207.04 C346.75 206.93 346.58 206.99 346.60 207.12 C346.60 207.12 346.60 207.11 346.60 207.11 L345.73 210.12 C345.73 210.12 345.73 210.12 345.73 210.12 C345.71 210.19 345.68 210.26 345.66 210.33 C344.54 213.98 327.11 264.73 287.88 281.69 C285.03 282.92 280.94 283.65 276.92 283.65 C269.84 283.65 263.42 281.48 258.86 277.55 C254.31 273.45 252.04 267.61 251.94 259.67 C251.89 256.45 252.97 251.75 254.80 247.14 C254.83 247.06 254.86 246.98 254.90 246.90 C257.21 241.94 260.35 237.43 264.01 233.85 C265.15 232.73 266.60 231.52 268.22 230.32 C268.29 230.27 268.37 230.22 268.44 230.17 C276.90 224.76 289.18 219.51 301.06 214.44 C308.48 211.27 315.48 208.27 321.01 205.46 C329.56 201.09 338.54 194.90 346.29 188.01 C352.37 182.61 356.78 176.07 359.40 168.59 C362.27 160.37 362.07 151.47 358.78 142.14 C355.35 132.38 348.47 128.07 345.67 126.67 C341.69 124.68 337.47 123.67 333.15 123.67 C327.93 123.67 323.32 124.94 319.43 127.44 C315.59 129.91 312.32 133.03 309.73 136.74 C307.41 140.06 304.86 145.39 301.91 151.56 C298.15 159.41 293.90 168.30 289.04 175.25 C286.80 178.44 283.94 181.17 280.53 183.35 C277.15 185.51 273.15 186.61 268.62 186.61 C263.80 186.61 260.07 184.61 257.06 182.65 C256.98 182.60 248.77 177.12 245.94 166.02 C243.75 155.19 245.64 144.76 245.84 143.71 C245.85 143.65 246.74 138.11 250.98 130.98 C254.20 125.58 255.69 123.68 256.49 122.73 C256.49 122.73 256.21 122.62 255.30 122.37 L248.56 120.41 L248.04 121.50 C246.82 124.09 245.62 127.23 244.45 130.82 C243.12 134.92 242.02 139.30 241.18 143.84 C241.02 144.59 237.50 162.40 243.89 176.44 C246.55 182.24 250.41 186.88 255.36 190.23 C260.31 193.58 266.22 195.28 272.92 195.28 C278.46 195.28 283.26 194.12 287.21 191.83 C290.79 189.71 293.87 186.71 296.89 182.40 C301.88 175.26 306.19 166.26 309.99 158.31 C312.89 152.25 315.39 147.02 317.58 143.89 C319.85 140.65 322.73 137.86 326.11 135.62 C329.14 133.66 332.74 132.66 336.82 132.66 C340.60 132.66 344.10 133.63 347.22 135.52 C350.36 137.45 351.42 138.64 353.23 141.52 C353.25 141.55 355.21 144.52 356.21 149.80 C357.10 155.59 356.62 161.18 354.79 166.40 C352.33 173.43 348.19 179.57 342.48 184.64 C335.62 190.74 325.84 196.72 316.31 200.63 L307.26 204.34 C306.71 204.56 306.15 204.77 305.59 204.95 C271.57 216.29 258.32 225.98 253.45 230.75 C244.40 239.61 238.87 253.00 239.99 263.33 C240.84 271.20 243.20 276.60 247.87 281.38 C253.44 287.09 261.33 289.98 271.30 289.98 C279.14 289.98 285.61 288.09 286.41 287.85 C303.63 281.65 318.40 267.94 331.72 248.02 C342.67 231.64 346.44 219.57 346.44 219.57 C346.44 219.57 344.22 274.40 344.65 280.34 C344.75 281.60 345.00 283.98 345.00 283.98 C345.32 287.28 346.18 290.49 347.57 293.53 C349.37 297.49 352.60 299.17 358.37 299.17 L358.37 299.16 C358.66 299.17 358.96 299.17 359.28 299.17 C362.29 299.17 363.91 298.84 365.42 297.86"/></svg>